<svg width="168" height="168" viewBox="0 0 168 168" fill="none" xmlns="http://www.w3.org/2000/svg">
<circle cx="84" cy="84" r="84" fill="#8E8162"/>
<path d="M95.269 54.3899C97.1443 55.2427 99.1992 55.6196 101.253 55.4874C105.021 54.2582 109.684 50.3181 107.62 51.4046C105.01 52.7875 101.668 52.3046 98.5888 51.0095C96.4471 46.2683 93.8464 41.7503 90.8243 37.5209C84.3376 28.0602 71.8337 20.3226 63.1191 17.2495C72.2596 21.914 80.5919 29.6296 87.9741 40.3964C90.8502 44.8129 93.2933 49.4993 95.269 54.3899" fill="white"/>
<path d="M91.414 142.128C97.6277 136.476 112.065 133.908 121.991 127.86L122.264 127.564C122.264 127.564 122.264 127.641 122.264 127.685C125.319 125.917 127.933 123.473 129.909 120.54C133.709 114.525 126.512 111.156 124.71 108.237C122.909 105.317 127.244 101.179 126.698 99.2917C126.152 97.404 122.33 97.3601 121.926 96.1418C121.522 94.9236 125.202 92.7285 124.514 90.5773C123.826 88.4262 118.955 86.8348 118.125 82.8946C117.295 78.9545 125.235 73.4559 123.203 69.9328C121.172 66.4097 109.728 67.0683 103.011 59.7258C102.307 58.8973 101.709 57.9828 101.231 57.0039C99.9742 57.8147 98.6055 58.4359 97.1691 58.8477C97.7531 60.2002 98.5172 61.4666 99.4405 62.6123C105.774 69.5377 116.575 68.9121 118.486 72.2376C120.397 75.5631 112.916 80.7215 113.692 84.4641C114.467 88.2067 119.043 89.6993 119.72 91.7298C120.397 93.7602 116.848 95.8564 117.274 96.9869C117.7 98.1173 121.27 98.1613 121.784 99.9502C122.297 101.739 118.202 105.624 119.905 108.379C121.609 111.134 128.391 114.317 124.809 119.991C117.656 131.362 96.2299 133.326 88.4545 140.394C84.0864 144.367 80.8976 151.655 88.3999 158.899L88.6511 158.789L89.3937 159.799C89.3617 159.728 89.3361 159.654 89.3172 159.579C84.0427 152.676 87.1332 146.014 91.3594 142.205" fill="white"/>
</svg>
