<svg xmlns="http://www.w3.org/2000/svg" fill="none" viewBox="0 0 322 101" height="101" width="322">
<path fill="#80714F" d="M125.77 26.3275C127.1 26.932 128.556 27.1992 130.012 27.1055C132.683 26.2342 135.989 23.4411 134.526 24.2114C132.675 25.1916 130.307 24.8493 128.124 23.9313C126.605 20.5704 124.762 17.3677 122.62 14.3697C118.021 7.6633 109.158 2.1784 102.98 0C109.46 3.3065 115.366 8.77584 120.599 16.408C122.638 19.5387 124.37 22.8608 125.77 26.3275"></path>
<path fill="#80714F" d="M123.038 88.5221C127.442 84.5154 137.676 82.6949 144.713 78.4081L144.906 78.1981C144.906 78.1981 144.906 78.2525 144.906 78.2836C147.071 77.0302 148.924 75.2983 150.325 73.2189C153.019 68.9554 147.918 66.5669 146.64 64.4975C145.363 62.428 148.436 59.4949 148.049 58.1568C147.662 56.8186 144.953 56.7875 144.666 55.9239C144.38 55.0603 146.989 53.5043 146.501 51.9794C146.013 50.4546 142.561 49.3265 141.972 46.5334C141.384 43.7404 147.012 39.8426 145.572 37.3453C144.132 34.8479 136.019 35.3147 131.259 30.1099C130.759 29.5226 130.335 28.8743 129.997 28.1804C129.106 28.7552 128.135 29.1955 127.117 29.4875C127.531 30.4462 128.073 31.3439 128.727 32.156C133.217 37.0652 140.873 36.6217 142.228 38.9791C143.583 41.3364 138.28 44.993 138.829 47.646C139.379 50.299 142.623 51.3571 143.103 52.7964C143.583 54.2357 141.067 55.7216 141.369 56.523C141.67 57.3243 144.202 57.3554 144.566 58.6236C144.93 59.8917 142.027 62.6458 143.234 64.5986C144.442 66.5514 149.249 68.8076 146.71 72.8299C141.64 80.89 126.451 82.2826 120.94 87.2929C117.843 90.1093 115.583 95.2752 120.901 100.41L121.079 100.332L121.605 101.048C121.583 100.998 121.565 100.946 121.551 100.892C117.812 95.9987 120.003 91.2762 122.999 88.5766"></path>
<path fill="#546374" d="M1.9666 52.6168C1.99251 53.8418 2.37762 55.0319 3.07367 56.0379C3.76971 57.0439 4.74571 57.821 5.87935 58.2719C7.01299 58.7227 8.25383 58.8273 9.44634 58.5724C10.6388 58.3175 11.73 57.7146 12.5829 56.8391C13.4359 55.9636 14.0128 54.8546 14.2413 53.651C14.4698 52.4474 14.3397 51.2028 13.8673 50.0732C13.395 48.9436 12.6014 47.9792 11.586 47.301C10.5707 46.6228 9.37868 46.2608 8.15951 46.2605C7.33049 46.2439 6.50686 46.398 5.73932 46.7133C4.97177 47.0285 4.27654 47.4983 3.69642 48.0938C3.1163 48.6892 2.66356 49.3976 2.36607 50.1755C2.06858 50.9534 1.93264 51.7842 1.9666 52.6168V52.6168ZM14.1511 47.8243V44.7123H16.0787V59.6655C16.0787 65.0026 12.4016 67.78 7.70278 67.78C5.25648 67.8403 2.87067 67.0116 0.983481 65.446L1.9666 64.0301C3.6043 65.3144 5.62556 66.0052 7.70278 65.9906C11.2792 65.9906 14.1511 63.9289 14.1511 59.7666V57.4871C13.5096 58.5508 12.5978 59.4236 11.5093 60.0157C10.4209 60.6078 9.19518 60.8978 7.95824 60.8558C3.46839 60.8558 0.0390625 57.4638 0.0390625 52.6557C0.0390625 47.8477 3.46839 44.4712 7.95824 44.4712C9.19819 44.4324 10.426 44.7271 11.5147 45.3248C12.6034 45.9225 13.5135 46.8015 14.1511 47.871"></path>
<path fill="#546374" d="M22.9605 51.752H34.3787C34.0923 48.4222 31.8319 46.1582 28.836 46.1582C25.5925 46.1582 23.3398 48.4922 22.9605 51.752ZM36.3449 52.6156C36.3449 52.9035 36.3449 53.1836 36.3449 53.3936H22.9296C22.9444 54.1908 23.1173 54.977 23.438 55.7063C23.7588 56.4356 24.221 57.0933 24.7976 57.6409C25.3742 58.1886 26.0537 58.6152 26.7963 58.8958C27.5389 59.1764 28.3297 59.3054 29.1225 59.2753C30.1324 59.2854 31.1338 59.0884 32.0655 58.6965C32.9972 58.3046 33.8396 57.7259 34.5413 56.9958L35.5786 58.3184C34.7358 59.2006 33.7161 59.8926 32.5871 60.3487C31.458 60.8047 30.2454 61.0143 29.0296 60.9636C24.3849 60.9636 21.0098 57.5871 21.0098 52.6934C21.0098 47.7998 24.4159 44.4077 28.9135 44.4077C33.1711 44.4077 36.3449 47.8076 36.3914 52.5923"></path>
<path fill="#546374" d="M51.0454 45.0306L50.5577 46.9212C49.6756 46.4887 48.7058 46.2677 47.7244 46.2754C45.0615 46.2754 43.1572 48.4383 43.1572 51.6825V60.7307H41.2451V44.7116H43.1417V47.4424C43.6105 46.5371 44.3174 45.7784 45.1855 45.2489C46.0536 44.7194 47.0496 44.4394 48.065 44.4393C49.0926 44.408 50.1132 44.6185 51.0454 45.054"></path>
<path fill="#546374" d="M81.8002 50.9352V60.7691H79.8649V51.4953C79.8649 48.2511 77.9838 46.275 74.7248 46.275C74.0204 46.2492 73.3182 46.3688 72.6617 46.6265C72.0051 46.8842 71.4081 47.2745 70.9075 47.7732C70.4069 48.2719 70.0134 48.8685 69.7512 49.5261C69.4891 50.1837 69.3639 50.8884 69.3834 51.5965V60.7302H67.4482V51.4953C67.4482 48.2511 65.5825 46.275 62.3235 46.275C61.6191 46.2492 60.917 46.3688 60.2604 46.6265C59.6038 46.8842 59.0068 47.2745 58.5062 47.7732C58.0056 48.2719 57.6121 48.8685 57.3499 49.5261C57.0878 50.1837 56.9626 50.8884 56.9822 51.5965V60.7302H55.0469V44.7112H56.9667V47.5275C57.5601 46.5538 58.4004 45.756 59.4016 45.216C60.4027 44.676 61.5287 44.4132 62.6641 44.4545C65.6522 44.4545 67.9204 45.8393 68.857 48.1888C69.4097 47.0235 70.2919 46.0477 71.3934 45.3835C72.4949 44.7193 73.7667 44.3962 75.05 44.4545C79.0521 44.4545 81.7847 46.9441 81.7847 50.9196"></path>
<path fill="#546374" d="M88.5118 52.7165C88.5574 53.9365 88.959 55.1161 89.6665 56.1085C90.3741 57.1008 91.3565 57.8621 92.4913 58.2976C93.6262 58.7331 94.8634 58.8236 96.049 58.5577C97.2346 58.2918 98.3163 57.6814 99.1593 56.8024C100.002 55.9234 100.569 54.8146 100.79 53.614C101.011 52.4135 100.875 51.1742 100.401 50.0505C99.9259 48.9267 99.1328 47.9681 98.12 47.294C97.1072 46.6198 95.9195 46.2599 94.7047 46.2591C93.8716 46.2585 93.0468 46.4269 92.2799 46.7542C91.513 47.0814 90.8197 47.5609 90.2415 48.1638C89.6633 48.7667 89.2121 49.4806 88.9149 50.2629C88.6177 51.0452 88.4806 51.8797 88.5118 52.7165ZM102.763 60.7299H100.843V57.6179C100.168 58.6781 99.23 59.5434 98.1211 60.1286C97.0121 60.7138 95.7707 60.9988 94.5189 60.9555C92.3963 60.863 90.3911 59.9504 88.9216 58.4081C87.4521 56.8659 86.6318 54.8129 86.6318 52.6776C86.6318 50.5422 87.4521 48.4893 88.9216 46.947C90.3911 45.4048 92.3963 44.4922 94.5189 44.3997C95.7708 44.3611 97.0113 44.6489 98.1196 45.2352C99.228 45.8214 100.166 46.6861 100.843 47.7451V44.6331H102.763V60.7299Z"></path>
<path fill="#546374" d="M123.208 50.9356V60.7696H121.272V51.4958C121.272 48.2515 119.407 46.2754 116.155 46.2754C115.45 46.2485 114.747 46.3673 114.09 46.6245C113.432 46.8817 112.834 47.2719 112.333 47.7707C111.832 48.2695 111.437 48.8665 111.175 49.5246C110.912 50.1828 110.787 50.8881 110.806 51.5969V60.7306H108.871V44.7116H110.791V47.528C111.384 46.5542 112.225 45.7565 113.226 45.2165C114.227 44.6765 115.353 44.4136 116.488 44.4549C120.491 44.4549 123.208 46.9445 123.208 50.9201"></path>
<path fill="#546374" d="M251.223 52.9984H262.641C262.355 49.6685 260.095 47.4046 257.099 47.4046C253.855 47.4046 251.595 49.7386 251.223 52.9984ZM264.608 53.862C264.608 54.1576 264.608 54.4299 264.608 54.64H251.192C251.206 55.4375 251.378 56.2242 251.699 56.954C252.019 57.6837 252.481 58.3418 253.058 58.8897C253.635 59.4375 254.315 59.8641 255.058 60.1443C255.801 60.4246 256.592 60.5528 257.385 60.5217C258.395 60.5303 259.396 60.3328 260.327 59.9409C261.259 59.5491 262.101 58.9711 262.804 58.2421L263.841 59.5725C262.997 60.4521 261.977 61.1419 260.848 61.5965C259.719 62.0511 258.507 62.2601 257.292 62.2099C252.648 62.2099 249.272 58.8334 249.272 53.9475C249.272 49.0617 252.679 45.6541 257.176 45.6541C261.434 45.6541 264.608 49.0539 264.654 53.8386"></path>
<path fill="#546374" d="M280.144 47.7071H272.751V56.4518C272.751 59.167 274.175 60.4118 276.296 60.4118C277.588 60.4188 278.843 59.9855 279.857 59.1826L280.771 60.6297C279.462 61.7028 277.815 62.2712 276.126 62.2323C272.797 62.2323 270.8 60.3729 270.8 56.4907V47.7071H267.139V45.9332H270.8V40.7051H272.751V45.9332H280.113L280.144 47.7071Z"></path>
<path fill="#546374" d="M286.6 61.9756H284.665V45.9332H286.6V61.9756ZM287.026 40.1916C287.027 40.3747 286.991 40.5562 286.922 40.7253C286.852 40.8944 286.749 41.0477 286.619 41.1761C286.489 41.3045 286.335 41.4053 286.165 41.4728C285.996 41.5402 285.815 41.5728 285.632 41.5687C285.452 41.5718 285.272 41.5384 285.104 41.4703C284.937 41.4022 284.784 41.3009 284.657 41.1724C284.529 41.0439 284.428 40.8908 284.36 40.7223C284.292 40.5538 284.259 40.3733 284.262 40.1916C284.257 40.0075 284.289 39.8243 284.355 39.6527C284.422 39.4811 284.522 39.3246 284.65 39.1926C284.777 39.0606 284.93 38.9557 285.099 38.884C285.268 38.8124 285.449 38.7756 285.632 38.7756C285.817 38.7756 285.999 38.8124 286.169 38.8837C286.339 38.9551 286.494 39.0596 286.623 39.1913C286.753 39.323 286.855 39.4792 286.924 39.6509C286.993 39.8226 287.028 40.0064 287.026 40.1916"></path>
<path fill="#546374" d="M305.55 48.1666L304.288 49.4814C303.686 48.8542 302.965 48.3558 302.167 48.0162C301.368 47.6766 300.51 47.5028 299.643 47.5053C297.979 47.5634 296.402 48.2688 295.245 49.4727C294.088 50.6766 293.441 52.285 293.441 53.9588C293.441 55.6326 294.088 57.241 295.245 58.445C296.402 59.6489 297.979 60.3542 299.643 60.4123C300.524 60.4075 301.394 60.2285 302.206 59.8854C303.018 59.5423 303.754 59.042 304.373 58.4129L305.581 59.7433C304.829 60.5526 303.916 61.1929 302.9 61.622C301.885 62.0511 300.791 62.2592 299.69 62.2328C297.505 62.2328 295.41 61.3607 293.866 59.8083C292.321 58.2559 291.453 56.1504 291.453 53.9549C291.453 51.7595 292.321 49.654 293.866 48.1016C295.41 46.5491 297.505 45.677 299.69 45.677C300.791 45.6466 301.887 45.853 302.903 46.2823C303.919 46.7117 304.832 47.3541 305.581 48.1666"></path>
<path fill="#546374" d="M320.746 48.9908C319.129 47.9476 317.249 47.3914 315.327 47.3881C312.835 47.3881 311.085 48.4773 311.085 50.2823C311.085 51.7682 312.262 52.6162 314.716 52.873L316.752 53.1142C320.08 53.5032 322 54.888 322 57.4243C322 60.4585 319.229 62.2323 315.126 62.2323C312.775 62.2813 310.472 61.5634 308.562 60.1862L309.459 58.7391C311.082 59.9954 313.095 60.6347 315.141 60.5441C318.029 60.5441 320.011 59.556 320.011 57.5488C320.011 56.0628 318.788 55.1603 316.334 54.888L314.274 54.6624C310.667 54.2578 309.103 52.6707 309.103 50.3834C309.103 47.4348 311.627 45.6765 315.296 45.6765C317.518 45.635 319.7 46.2667 321.559 47.4892L320.746 48.9908Z"></path>
<path fill="#546374" d="M244.48 52.3586V62.2003H242.56V52.9577C242.56 49.7134 240.679 47.7373 237.42 47.7373C236.716 47.7115 236.014 47.8311 235.357 48.0888C234.7 48.3465 234.103 48.7368 233.603 49.2355C233.102 49.7342 232.709 50.3308 232.447 50.9884C232.184 51.646 232.059 52.3507 232.079 53.0588V62.2003H230.143V52.9577C230.143 49.7134 228.278 47.7373 225.019 47.7373C224.315 47.7127 223.613 47.8331 222.957 48.0912C222.301 48.3493 221.704 48.7396 221.204 49.2381C220.704 49.7366 220.31 50.3327 220.048 50.9898C219.785 51.6469 219.659 52.351 219.677 53.0588V62.2003H217.742V46.1579H219.662V48.9665C220.256 47.9936 221.096 47.197 222.098 46.6583C223.099 46.1197 224.225 45.8584 225.359 45.9012C228.348 45.9012 230.623 47.2783 231.552 49.6356C232.104 48.4696 232.986 47.4933 234.088 46.8289C235.19 46.1646 236.462 45.8419 237.745 45.9012C241.747 45.9012 244.48 48.3908 244.48 52.3586"></path>
<path fill="#546374" d="M211.735 48.953C210.118 47.9098 208.238 47.3537 206.316 47.3503C203.816 47.3503 202.074 48.4395 202.074 50.2523C202.074 51.7305 203.243 52.5474 205.705 52.843L207.741 53.0764C211.062 53.4732 212.982 54.8502 212.982 57.3943C212.982 60.4285 210.21 62.2023 206.107 62.2023C203.757 62.2474 201.455 61.5299 199.543 60.1562L200.449 58.7169C202.07 59.9765 204.083 60.6187 206.131 60.5296C209.018 60.5296 211 59.5416 211 57.5266C211 56.0406 209.777 55.1381 207.323 54.8658L205.271 54.6479C201.656 54.2356 200.093 52.6485 200.093 50.3689C200.093 47.4125 202.624 45.6621 206.286 45.6621C208.506 45.6182 210.688 46.2472 212.548 47.467L211.735 48.953Z"></path>
<path fill="#546374" d="M175.043 48.1349L173.789 49.4419C173.182 48.8103 172.454 48.3094 171.649 47.9696C170.844 47.6299 169.978 47.4585 169.105 47.4658C165.614 47.4658 162.951 50.1966 162.951 53.931C162.912 54.7657 163.043 55.5996 163.335 56.3818C163.627 57.1641 164.075 57.8784 164.651 58.4811C165.226 59.0839 165.918 59.5625 166.684 59.8877C167.45 60.2129 168.274 60.378 169.105 60.3728C170.884 60.3639 172.587 59.6478 173.843 58.3812L175.043 59.7115C174.295 60.5231 173.383 61.1649 172.368 61.5942C171.354 62.0235 170.26 62.2304 169.159 62.2011C166.975 62.2011 164.88 61.329 163.335 59.7766C161.791 58.2242 160.923 56.1187 160.923 53.9232C160.923 51.7278 161.791 49.6222 163.335 48.0698C164.88 46.5174 166.975 45.6453 169.159 45.6453C170.26 45.616 171.354 45.8229 172.368 46.2522C173.383 46.6815 174.295 47.3234 175.043 48.1349"></path>
<path fill="#546374" d="M181.096 54.0468C181.074 52.3961 181.704 50.8039 182.85 49.6207C183.995 48.4374 185.561 47.7599 187.204 47.7372C188.846 47.7145 190.431 48.3485 191.608 49.4997C192.785 50.6508 193.459 52.2249 193.482 53.8756C193.505 55.5263 192.874 57.1185 191.728 58.3017C190.583 59.485 189.017 60.1625 187.374 60.1852C185.732 60.2079 184.148 59.5739 182.97 58.4228C181.793 57.2716 181.119 55.6975 181.096 54.0468ZM179.083 54.0468C179.111 55.6726 179.616 57.254 180.535 58.5921C181.454 59.9302 182.747 60.9653 184.25 61.5674C185.753 62.1695 187.399 62.3116 188.982 61.9758C190.565 61.6401 192.014 60.8415 193.147 59.6804C194.28 58.5194 195.046 57.0477 195.348 55.4504C195.651 53.8531 195.478 52.2015 194.849 50.7031C194.221 49.2048 193.165 47.9266 191.816 47.0293C190.467 46.132 188.884 45.6556 187.266 45.6599C186.18 45.6701 185.108 45.8952 184.109 46.3222C183.11 46.7493 182.205 47.3701 181.445 48.149C180.685 48.9279 180.085 49.8497 179.68 50.8617C179.275 51.8736 179.072 52.956 179.083 54.0468"></path>
</svg>
